<svg xmlns="http://www.w3.org/2000/svg" width="1024" height="1024" viewBox="0 0 1024 1024" version="1.1">
	<path d="M 504.455 264.881 C 502.231 265.891, 492.014 271.944, 481.750 278.331 C 471.487 284.718, 439.557 304.517, 410.795 322.328 C 382.033 340.140, 337.575 367.741, 312 383.663 C 286.425 399.586, 263.761 413.669, 261.635 414.959 C 259.422 416.303, 257.179 418.721, 256.385 420.620 C 254.482 425.176, 254.506 444.882, 256.421 449.466 C 259.392 456.576, 236.879 456, 511.885 456 C 670.562 456, 760.793 455.649, 762.434 455.025 C 767.548 453.081, 768.992 448.783, 768.995 435.500 C 768.997 420.553, 767.974 418.121, 759.500 412.949 C 751.864 408.289, 694.738 372.977, 640.500 339.391 C 548.218 282.246, 519.999 264.950, 517.491 263.997 C 513.582 262.511, 508.988 262.822, 504.455 264.881 M 504.373 329.760 L 497.392 351.500 475.133 351.769 L 452.874 352.039 469.518 365.649 C 478.673 373.135, 486.387 379.846, 486.662 380.562 C 486.937 381.278, 484.375 390.557, 480.970 401.182 C 477.565 411.807, 474.546 421.308, 474.261 422.295 C 473.935 423.424, 480.871 419.401, 492.946 411.458 C 510.226 400.090, 512.317 398.971, 513.824 400.289 C 516.514 402.640, 549.139 424.199, 549.452 423.833 C 549.609 423.650, 546.883 414.725, 543.396 404 C 539.909 393.275, 536.816 383.375, 536.523 382 C 536.045 379.758, 537.733 378.107, 552.881 366 L 569.773 352.500 548.219 352 L 526.665 351.500 519.582 330.320 C 515.687 318.670, 512.242 308.887, 511.927 308.580 C 511.612 308.272, 508.212 317.803, 504.373 329.760 M 289.380 485.349 C 287.092 487.317, 286.578 488.689, 286.207 493.809 C 285.792 499.554, 285.947 500.101, 288.806 502.960 C 290.620 504.774, 292.886 506, 294.423 506 C 296.715 506, 297.012 506.415, 297.109 509.750 C 297.433 520.951, 297.488 687.698, 297.167 688.750 C 296.957 689.438, 295.734 690, 294.449 690 C 290.221 690, 286.800 694.030, 286.260 699.643 C 285.606 706.456, 287.755 710.553, 292.756 712.025 C 295.215 712.749, 306.163 713.020, 324.647 712.814 C 350.692 712.523, 352.951 712.357, 354.901 710.591 C 357.935 707.843, 359.318 701.893, 358.031 697.116 C 356.804 692.559, 355.177 690.988, 350.744 690.081 L 347.500 689.418 347.500 598.023 L 347.500 506.627 351 505.740 C 355.680 504.554, 357.086 502.996, 358.003 497.981 C 358.999 492.538, 357.602 487.619, 354.331 485.045 C 351.843 483.089, 350.437 483, 321.921 483 L 292.112 483 289.380 485.349 M 390.659 485.054 C 387.651 487.419, 385.648 493.654, 386.591 497.713 C 387.767 502.777, 389.805 504.945, 394.022 505.620 L 398.010 506.257 397.755 597.838 L 397.500 689.418 394.024 690.129 C 388.889 691.179, 387 694.118, 387 701.055 C 387 705.779, 387.459 707.422, 389.413 709.694 L 391.826 712.500 423.499 712.500 L 455.172 712.500 457.586 709.694 C 459.492 707.479, 460 705.755, 460 701.500 C 460 695.016, 457.326 691.223, 451.984 690.131 L 448.500 689.418 448.245 597.709 L 447.990 506 451.072 506 C 453.172 506, 455.122 505.032, 457.194 502.960 C 460.053 500.101, 460.208 499.554, 459.793 493.809 C 459.422 488.689, 458.908 487.317, 456.620 485.349 L 453.888 483 423.579 483 C 394.520 483, 393.162 483.085, 390.659 485.054 M 496.500 484.208 C 491.902 486.845, 492.065 482.673, 492.032 598.027 C 491.997 719.376, 491.536 711.260, 498.529 712.571 C 503.224 713.452, 508.695 712.305, 511.056 709.944 C 512.958 708.042, 513 705.614, 513 597.955 L 513 487.909 510.545 485.455 C 508.609 483.518, 507.078 483.006, 503.295 483.030 C 500.658 483.047, 497.600 483.577, 496.500 484.208 M 707.341 487.250 C 705.663 489.038, 691.806 509.109, 676.548 531.854 C 661.290 554.599, 645.975 577.223, 642.515 582.129 L 636.225 591.050 624.556 578.623 C 618.139 571.788, 611.540 565.638, 609.892 564.955 C 603.143 562.160, 594.180 568.228, 593.281 576.201 C 592.714 581.233, 592.630 581.112, 614.175 606.641 C 628.978 624.182, 632.016 627, 636.126 627 C 642.034 627, 644.488 624.469, 660.566 601.783 C 669.252 589.527, 678.908 575.900, 682.023 571.500 C 696.576 550.950, 727.881 505.144, 729.446 502.111 C 730.794 499.498, 730.955 498.196, 730.146 496.422 C 728.806 493.480, 715.369 484, 712.539 484 C 711.358 484, 709.019 485.462, 707.341 487.250 M 555.923 518.923 L 553 521.846 553 591 L 553 660.154 555.923 663.077 L 558.846 666 635.989 666 C 692.720 666, 713.709 665.692, 715.316 664.837 C 719.972 662.357, 719.935 662.730, 719.968 618.750 L 720 577 707.750 577 L 695.500 577.001 695.305 607.611 C 695.131 634.916, 694.925 638.425, 693.400 640.111 C 691.762 641.920, 689.334 642, 636 642 C 580.659 642, 580.298 641.987, 578.405 639.896 C 576.589 637.890, 576.500 635.617, 576.500 591.432 C 576.500 548.273, 576.623 544.950, 578.284 543.287 C 579.909 541.660, 583.179 541.455, 614.711 541 L 649.354 540.500 656.120 529 C 659.841 522.675, 662.912 517.163, 662.943 516.750 C 662.974 516.337, 639.565 516, 610.923 516 L 558.846 516 555.923 518.923 M 558.500 690.161 C 554.712 692.244, 553.045 695.329, 553.022 700.300 C 552.995 706.219, 555.023 710.353, 558.705 711.878 C 560.763 712.730, 581.770 712.966, 638.171 712.768 L 714.840 712.500 717.379 710.114 C 720.256 707.411, 721.544 701.217, 720.211 696.500 C 719.740 694.834, 717.883 692.500, 716.033 691.250 L 712.704 689 636.602 689.030 C 583.193 689.052, 559.904 689.389, 558.500 690.161 M 261.500 731.942 C 256.610 733.951, 255.516 736.635, 255.218 747.352 C 254.894 759.022, 255.788 761.627, 261.014 764.248 C 264.305 765.899, 278.365 765.997, 512 765.997 C 745.635 765.997, 759.695 765.899, 762.986 764.248 C 768.220 761.624, 769.106 759.028, 768.782 747.270 C 768.515 737.600, 768.348 736.889, 765.727 734.270 L 762.955 731.500 513.227 731.310 C 375.877 731.206, 262.600 731.490, 261.500 731.942" stroke="none" fill="#ffffff" fill-rule="evenodd"/>
</svg>